<?xml version="1.0" encoding="utf-8"?>
<!-- Generator: Adobe Illustrator 16.0.0, SVG Export Plug-In . SVG Version: 6.00 Build 0)  -->
<!DOCTYPE svg PUBLIC "-//W3C//DTD SVG 1.1//EN" "http://www.w3.org/Graphics/SVG/1.1/DTD/svg11.dtd">
<svg version="1.1" id="Layer_1" xmlns="http://www.w3.org/2000/svg" xmlns:xlink="http://www.w3.org/1999/xlink" x="0px" y="0px"
	 width="50px" height="50px" viewBox="272.64 395.945 50 50" enable-background="new 272.64 395.945 50 50" xml:space="preserve">
<g>
	<g>
		<path fill="#CCE7F6" d="M1131.918,143.093c-4.923,0-8.91,3.989-8.91,8.91c0,2.888,1.379,5.448,3.51,7.076l12.244-12.776
			C1137.129,144.342,1134.67,143.093,1131.918,143.093z"/>
		<path fill="#9ACFED" d="M1140.825,152.002c0-2.169-0.774-4.155-2.063-5.701l-12.244,12.776c1.5,1.146,3.367,1.834,5.4,1.834
			C1136.838,160.912,1140.825,156.923,1140.825,152.002z"/>
	</g>
	<g>
		<path fill="#CCE7F6" d="M1155.213,143.093c-4.922,0-8.91,3.989-8.91,8.91c0,2.888,1.379,5.448,3.51,7.076l12.244-12.776
			C1160.424,144.342,1157.965,143.093,1155.213,143.093z"/>
		<path fill="#9ACFED" d="M1164.12,152.002c0-2.169-0.774-4.155-2.063-5.701l-12.244,12.776c1.5,1.146,3.367,1.834,5.4,1.834
			C1160.133,160.912,1164.12,156.923,1164.12,152.002z"/>
	</g>
	<g>
		<g>
			<g>
				<path fill="#0288D1" d="M1131.918,162.095c-5.839,0-10.589-4.528-10.589-10.092c0-5.565,4.75-10.093,10.589-10.093
					c5.838,0,10.586,4.528,10.586,10.093C1142.504,157.567,1137.756,162.095,1131.918,162.095z M1131.918,144.292
					c-4.525,0-8.205,3.459-8.205,7.711c0,4.251,3.68,7.71,8.205,7.71c4.524,0,8.204-3.458,8.204-7.71
					C1140.123,147.751,1136.443,144.292,1131.918,144.292z"/>
			</g>
			<g>
				<path fill="#0288D1" d="M1155.325,162.095c-5.838,0-10.588-4.528-10.588-10.092c0-5.565,4.75-10.093,10.588-10.093
					c5.839,0,10.589,4.528,10.589,10.093C1165.913,157.567,1161.163,162.095,1155.325,162.095z M1155.325,144.292
					c-4.524,0-8.204,3.459-8.204,7.711c0,4.251,3.68,7.71,8.204,7.71c4.525,0,8.205-3.458,8.205-7.71
					S1159.852,144.292,1155.325,144.292z"/>
			</g>
			<g>
				<path fill="#0288D1" d="M1145.6,151.568c-0.881-0.272-1.771-0.373-2.646-0.304c-0.498,0.039-0.991,0.136-1.475,0.286
					l-0.707-2.275c0.65-0.202,1.318-0.332,1.992-0.385c1.18-0.091,2.369,0.041,3.537,0.402L1145.6,151.568z"/>
			</g>
			<g>
				<rect x="1119.995" y="150.812" fill="#0288D1" width="1.863" height="2.382"/>
			</g>
			<g>
				<rect x="1165.434" y="150.812" fill="#0288D1" width="1.602" height="2.382"/>
			</g>
		</g>
	</g>
</g>
<g>
	<polygon fill="#FF8E31" points="1129.301,166.905 1130.508,170.623 1134.418,170.623 1131.254,172.921 1132.463,176.639 
		1129.301,174.341 1126.137,176.639 1127.346,172.921 1124.182,170.623 1128.092,170.623 	"/>
	<polygon fill="#FF8E31" points="1144.082,166.905 1145.291,170.623 1149.2,170.623 1146.036,172.921 1147.245,176.639 
		1144.082,174.341 1140.92,176.639 1142.129,172.921 1138.965,170.623 1142.875,170.623 	"/>
	<polygon fill="#FF8E31" points="1157.732,166.905 1158.941,170.623 1162.852,170.623 1159.688,172.921 1160.896,176.639 
		1157.732,174.341 1154.57,176.639 1155.779,172.921 1152.615,170.623 1156.525,170.623 	"/>
</g>
<g>
	<g>
		<g>
			<path fill="#DB1B49" d="M311.584,419.397l-6.198,6.195c-3.424,3.424-8.972,3.424-12.395,0c-0.54-0.536-0.96-1.143-1.332-1.77
				l2.882-2.878c0.136-0.137,0.31-0.218,0.467-0.31c0.201,0.681,0.548,1.323,1.082,1.859c1.709,1.709,4.489,1.707,6.197,0
				l6.198-6.197c1.706-1.71,1.706-4.49,0-6.199c-1.711-1.707-4.488-1.707-6.198,0l-2.202,2.209c-1.788-0.698-3.717-0.883-5.588-0.61
				l4.692-4.695c3.426-3.423,8.972-3.423,12.396,0C315.006,410.425,315.006,415.973,311.584,419.397L311.584,419.397z"/>
			<path fill="#F02043" d="M295.198,429.586l-2.207,2.203c-1.704,1.708-4.485,1.708-6.196,0c-1.707-1.708-1.707-4.488,0-6.197
				l6.196-6.195c1.708-1.711,4.489-1.711,6.197,0c0.535,0.533,0.882,1.177,1.084,1.856c0.165-0.096,0.328-0.173,0.468-0.31
				l2.876-2.879c-0.365-0.627-0.791-1.229-1.329-1.768c-3.419-3.421-8.97-3.421-12.396,0l-6.193,6.197
				c-3.423,3.424-3.423,8.97,0,12.396c3.422,3.42,8.971,3.42,12.395,0l4.695-4.697C298.911,430.468,296.985,430.28,295.198,429.586
				L295.198,429.586z"/>
			<path fill="#F02043" d="M295.198,429.586"/>
		</g>
	</g>
</g>
</svg>
