<?xml version="1.0" encoding="utf-8"?>
<!-- Generator: Adobe Illustrator 16.0.0, SVG Export Plug-In . SVG Version: 6.00 Build 0)  -->
<!DOCTYPE svg PUBLIC "-//W3C//DTD SVG 1.1//EN" "http://www.w3.org/Graphics/SVG/1.1/DTD/svg11.dtd">
<svg version="1.1" id="Layer_1" xmlns="http://www.w3.org/2000/svg" xmlns:xlink="http://www.w3.org/1999/xlink" x="0px" y="0px"
	 width="50px" height="50px" viewBox="0 0 50 50" enable-background="new 0 0 50 50" xml:space="preserve">
<g>
	<path fill="#0288D1" d="M35.338,2.956H8.658c-1.791,0-3.25,1.212-3.25,2.702v38.684c0,1.489,1.459,2.703,3.25,2.703h32.684
		c1.793,0,3.25-1.213,3.25-2.703V11.314L35.338,2.956z M37.162,32.749"/>
	<path fill="#0480B7" d="M44.592,45.096c0,0.26-0.258,0.468-0.566,0.468L7.709,3.419c0-0.256,0.252-0.463,0.57-0.463h27.031v7.084
		c0,0.673,0.674,1.22,1.496,1.22h7.785V45.096z"/>
	<polygon fill="#FFFFFF" points="36.707,6.458 40.762,10.123 36.707,10.123 	"/>
</g>
<g>
	<path fill="#FFFFFF" d="M13.937,18.545h22.131c0.538,0,0.976,0.439,0.976,0.977c0,0.54-0.438,0.978-0.976,0.978H13.937
		c-0.543,0-0.979-0.438-0.979-0.978C12.957,18.984,13.394,18.545,13.937,18.545L13.937,18.545z"/>
	<path fill="#FFFFFF" d="M37.043,26.086c0,0.536-0.438,0.975-0.976,0.975H13.937c-0.543,0-0.979-0.438-0.979-0.975
		c0-0.542,0.437-0.978,0.979-0.978h22.131C36.605,25.108,37.043,25.544,37.043,26.086L37.043,26.086z"/>
	<path fill="#FFFFFF" d="M37.043,32.432c0,0.536-0.438,0.976-0.976,0.976H13.937c-0.543,0-0.979-0.44-0.979-0.976
		c0-0.54,0.437-0.98,0.979-0.98h22.131C36.605,31.452,37.043,31.892,37.043,32.432L37.043,32.432z"/>
	<path fill="#FFFFFF" d="M37.043,38.885c0,0.54-0.438,0.979-0.976,0.979H13.937c-0.543,0-0.979-0.438-0.979-0.979
		c0-0.538,0.437-0.977,0.979-0.977h22.131C36.605,37.908,37.043,38.347,37.043,38.885L37.043,38.885z"/>
</g>
</svg>
